<mxfile modified="2022-02-08T10:13:13.024Z" host="app.diagrams.net" agent="5.0 (Macintosh; Intel Mac OS X 10_15_7) AppleWebKit/537.36 (KHTML, like Gecko) Chrome/97.0.4692.99 Safari/537.36" etag="p6PT9Ib2E5wFGek9CdG-" version="15.9.4" type="github">
  <diagram id="f106602c-feb2-e66a-4537-3a34d633f6aa" name="Page-1">
    <mxGraphModel dx="943" dy="526" grid="1" gridSize="10" guides="1" tooltips="1" connect="1" arrows="1" fold="1" page="1" pageScale="1" pageWidth="1169" pageHeight="827" background="none" math="0" shadow="0">
      <root>
        <mxCell id="0" />
        <mxCell id="1" parent="0" />
        <mxCell id="14" value="&lt;b&gt;LMNAs&lt;/b&gt;&amp;nbsp;Unified Marketing Platform" style="fillColor=#F6F6F6;strokeColor=none;shadow=0;gradientColor=none;fontSize=14;align=left;spacing=10;fontColor=#717171;9E9E9E;verticalAlign=top;spacingTop=-4;fontStyle=0;spacingLeft=40;html=1;" parent="1" vertex="1">
          <mxGeometry x="640" y="783" width="420" height="430" as="geometry" />
        </mxCell>
        <mxCell id="15" value="" style="shape=mxgraph.gcp2.google_cloud_platform;fillColor=#F6F6F6;strokeColor=none;shadow=0;gradientColor=none;" parent="14" vertex="1">
          <mxGeometry width="23" height="20" relative="1" as="geometry">
            <mxPoint x="20" y="10" as="offset" />
          </mxGeometry>
        </mxCell>
        <mxCell id="699" value="" style="strokeColor=#dddddd;fillColor=#ffffff;shadow=1;strokeWidth=1;rounded=1;absoluteArcSize=1;arcSize=2;fontSize=10;fontColor=#9E9E9E;align=center;html=1;" parent="14" vertex="1">
          <mxGeometry x="215" y="30" width="150" height="60" as="geometry" />
        </mxCell>
        <mxCell id="700" value="&lt;font color=&quot;#000000&quot;&gt;Relevant Users&lt;/font&gt;&lt;br&gt;Cloud Storage" style="dashed=0;connectable=0;html=1;fillColor=#5184F3;strokeColor=none;shape=mxgraph.gcp2.hexIcon;prIcon=cloud_storage;part=1;labelPosition=right;verticalLabelPosition=middle;align=left;verticalAlign=middle;spacingLeft=5;fontColor=#999999;fontSize=12;" parent="699" vertex="1">
          <mxGeometry y="0.5" width="44" height="39" relative="1" as="geometry">
            <mxPoint x="5" y="-19.5" as="offset" />
          </mxGeometry>
        </mxCell>
        <mxCell id="711" value="Customer Lists Logic" style="rounded=1;absoluteArcSize=1;arcSize=2;html=1;strokeColor=none;gradientColor=none;shadow=0;dashed=0;strokeColor=none;fontSize=12;fontColor=#9E9E9E;align=left;verticalAlign=top;spacing=10;spacingTop=-4;fillColor=#E1F5FE;" parent="1" vertex="1">
          <mxGeometry x="660" y="903" width="360" height="100" as="geometry" />
        </mxCell>
        <mxCell id="712" style="edgeStyle=orthogonalEdgeStyle;rounded=0;html=1;labelBackgroundColor=none;startFill=1;startSize=4;endArrow=blockThin;endFill=1;endSize=4;jettySize=auto;orthogonalLoop=1;strokeColor=#4284F3;strokeWidth=2;fontSize=12;fontColor=#000000;align=center;dashed=0;" parent="1" source="705" target="711" edge="1">
          <mxGeometry relative="1" as="geometry">
            <Array as="points">
              <mxPoint x="610" y="913" />
              <mxPoint x="610" y="953" />
            </Array>
          </mxGeometry>
        </mxCell>
        <mxCell id="705" value="Campaign Manager" style="rounded=1;absoluteArcSize=1;arcSize=2;html=1;strokeColor=none;gradientColor=none;shadow=0;dashed=0;strokeColor=none;fontSize=12;fontColor=#9E9E9E;align=left;verticalAlign=top;spacing=10;spacingTop=-4;fillColor=#FFF8E1;" parent="1" vertex="1">
          <mxGeometry x="440" y="853" width="120" height="100" as="geometry" />
        </mxCell>
        <mxCell id="713" style="edgeStyle=orthogonalEdgeStyle;rounded=0;html=1;labelBackgroundColor=none;startFill=1;startSize=4;endArrow=blockThin;endFill=1;endSize=4;jettySize=auto;orthogonalLoop=1;strokeColor=#4284F3;strokeWidth=2;fontSize=12;fontColor=#000000;align=center;dashed=0;" parent="1" source="706" target="711" edge="1">
          <mxGeometry relative="1" as="geometry" />
        </mxCell>
        <mxCell id="706" value="Analytics" style="rounded=1;absoluteArcSize=1;arcSize=2;html=1;strokeColor=none;gradientColor=none;shadow=0;dashed=0;strokeColor=none;fontSize=12;fontColor=#9E9E9E;align=left;verticalAlign=top;spacing=10;spacingTop=-4;fillColor=#FFF8E1;" parent="1" vertex="1">
          <mxGeometry x="440" y="973" width="120" height="100" as="geometry" />
        </mxCell>
        <mxCell id="714" style="edgeStyle=orthogonalEdgeStyle;rounded=0;html=1;labelBackgroundColor=none;startFill=1;startSize=4;endArrow=blockThin;endFill=1;endSize=4;jettySize=auto;orthogonalLoop=1;strokeColor=#4284F3;strokeWidth=2;fontSize=12;fontColor=#000000;align=center;dashed=0;" parent="1" source="707" target="711" edge="1">
          <mxGeometry relative="1" as="geometry">
            <Array as="points">
              <mxPoint x="750" y="1148" />
            </Array>
          </mxGeometry>
        </mxCell>
        <mxCell id="707" value="Marketing List" style="rounded=1;absoluteArcSize=1;arcSize=2;html=1;strokeColor=none;gradientColor=none;shadow=0;dashed=0;strokeColor=none;fontSize=12;fontColor=#9E9E9E;align=left;verticalAlign=top;spacing=10;spacingTop=-4;fillColor=#F1F8E9;" parent="1" vertex="1">
          <mxGeometry x="440" y="1093" width="120" height="110" as="geometry" />
        </mxCell>
        <mxCell id="689" value="" style="strokeColor=#dddddd;fillColor=#ffffff;shadow=1;strokeWidth=1;rounded=1;absoluteArcSize=1;arcSize=2;fontSize=10;fontColor=#9E9E9E;align=center;html=1;" parent="1" vertex="1">
          <mxGeometry x="470" y="883" width="60" height="60" as="geometry" />
        </mxCell>
        <mxCell id="690" value="" style="dashed=0;connectable=0;html=1;fillColor=#5184F3;strokeColor=none;shape=mxgraph.gcp2.campaign_manager;part=1;labelPosition=right;verticalLabelPosition=middle;align=left;verticalAlign=middle;spacingLeft=5;fontColor=#999999;fontSize=12;" parent="689" vertex="1">
          <mxGeometry width="45" height="45" relative="1" as="geometry">
            <mxPoint x="5" y="7" as="offset" />
          </mxGeometry>
        </mxCell>
        <mxCell id="693" value="" style="strokeColor=#dddddd;fillColor=#ffffff;shadow=1;strokeWidth=1;rounded=1;absoluteArcSize=1;arcSize=2;fontSize=10;fontColor=#9E9E9E;align=center;html=1;" parent="1" vertex="1">
          <mxGeometry x="470" y="1001" width="60" height="60" as="geometry" />
        </mxCell>
        <mxCell id="694" value="" style="dashed=0;connectable=0;html=1;fillColor=#5184F3;strokeColor=none;shape=mxgraph.gcp2.google_analytics;part=1;labelPosition=right;verticalLabelPosition=middle;align=left;verticalAlign=middle;spacingLeft=5;fontColor=#999999;fontSize=12;" parent="693" vertex="1">
          <mxGeometry width="45" height="45" relative="1" as="geometry">
            <mxPoint x="5" y="7" as="offset" />
          </mxGeometry>
        </mxCell>
        <mxCell id="695" value="" style="strokeColor=#dddddd;fillColor=#ffffff;shadow=1;strokeWidth=1;rounded=1;absoluteArcSize=1;arcSize=2;labelPosition=center;verticalLabelPosition=middle;align=center;verticalAlign=bottom;spacingLeft=0;fontColor=#999999;fontSize=12;whiteSpace=wrap;spacingBottom=2;html=1;" parent="1" vertex="1">
          <mxGeometry x="470" y="1123" width="60" height="67" as="geometry" />
        </mxCell>
        <mxCell id="696" value="" style="dashed=0;connectable=0;html=1;fillColor=#757575;strokeColor=none;shape=mxgraph.gcp2.list;part=1;" parent="695" vertex="1">
          <mxGeometry x="0.5" width="44.5" height="50" relative="1" as="geometry">
            <mxPoint x="-22.25" y="10" as="offset" />
          </mxGeometry>
        </mxCell>
        <mxCell id="715" style="edgeStyle=orthogonalEdgeStyle;rounded=0;html=1;labelBackgroundColor=none;startFill=1;startSize=4;endArrow=blockThin;endFill=1;endSize=4;jettySize=auto;orthogonalLoop=1;strokeColor=#4284F3;strokeWidth=2;fontSize=12;fontColor=#000000;align=center;dashed=0;" parent="1" source="697" target="703" edge="1">
          <mxGeometry relative="1" as="geometry" />
        </mxCell>
        <mxCell id="697" value="" style="strokeColor=#dddddd;fillColor=#ffffff;shadow=1;strokeWidth=1;rounded=1;absoluteArcSize=1;arcSize=2;fontSize=10;fontColor=#9E9E9E;align=center;html=1;" parent="1" vertex="1">
          <mxGeometry x="670" y="933" width="150" height="60" as="geometry" />
        </mxCell>
        <mxCell id="698" value="&lt;font color=&quot;#000000&quot;&gt;Export Ad Data&lt;/font&gt;&lt;br&gt;Cloud Storage" style="dashed=0;connectable=0;html=1;fillColor=#5184F3;strokeColor=none;shape=mxgraph.gcp2.hexIcon;prIcon=cloud_storage;part=1;labelPosition=right;verticalLabelPosition=middle;align=left;verticalAlign=middle;spacingLeft=5;fontColor=#999999;fontSize=12;" parent="697" vertex="1">
          <mxGeometry y="0.5" width="44" height="39" relative="1" as="geometry">
            <mxPoint x="5" y="-19.5" as="offset" />
          </mxGeometry>
        </mxCell>
        <mxCell id="719" style="edgeStyle=orthogonalEdgeStyle;rounded=0;html=1;labelBackgroundColor=none;startFill=1;startSize=4;endArrow=blockThin;endFill=1;endSize=4;jettySize=auto;orthogonalLoop=1;strokeColor=#4284F3;strokeWidth=2;fontSize=12;fontColor=#000000;align=center;dashed=0;" parent="1" target="705" edge="1">
          <mxGeometry relative="1" as="geometry">
            <Array as="points">
              <mxPoint x="830" y="843" />
              <mxPoint x="830" y="883" />
            </Array>
            <mxPoint x="855" y="843" as="sourcePoint" />
          </mxGeometry>
        </mxCell>
        <mxCell id="718" style="edgeStyle=orthogonalEdgeStyle;rounded=0;html=1;labelBackgroundColor=none;startFill=1;startSize=4;endArrow=blockThin;endFill=1;endSize=4;jettySize=auto;orthogonalLoop=1;strokeColor=#4284F3;strokeWidth=2;fontSize=12;fontColor=#000000;align=center;dashed=0;" parent="1" source="701" target="703" edge="1">
          <mxGeometry relative="1" as="geometry" />
        </mxCell>
        <mxCell id="701" value="" style="strokeColor=#dddddd;fillColor=#ffffff;shadow=1;strokeWidth=1;rounded=1;absoluteArcSize=1;arcSize=2;fontSize=10;fontColor=#9E9E9E;align=center;html=1;" parent="1" vertex="1">
          <mxGeometry x="855" y="1033" width="150" height="60" as="geometry" />
        </mxCell>
        <mxCell id="702" value="&lt;font color=&quot;#000000&quot;&gt;Reference Table&lt;/font&gt;&lt;br&gt;BigQuery" style="dashed=0;connectable=0;html=1;fillColor=#5184F3;strokeColor=none;shape=mxgraph.gcp2.hexIcon;prIcon=bigquery;part=1;labelPosition=right;verticalLabelPosition=middle;align=left;verticalAlign=middle;spacingLeft=5;fontColor=#999999;fontSize=12;" parent="701" vertex="1">
          <mxGeometry y="0.5" width="44" height="39" relative="1" as="geometry">
            <mxPoint x="5" y="-19.5" as="offset" />
          </mxGeometry>
        </mxCell>
        <mxCell id="716" style="edgeStyle=orthogonalEdgeStyle;rounded=0;html=1;labelBackgroundColor=none;startFill=1;startSize=4;endArrow=blockThin;endFill=1;endSize=4;jettySize=auto;orthogonalLoop=1;strokeColor=#4284F3;strokeWidth=2;fontSize=12;fontColor=#000000;align=center;dashed=0;" parent="1" source="703" edge="1">
          <mxGeometry relative="1" as="geometry">
            <Array as="points">
              <mxPoint x="1040" y="963" />
              <mxPoint x="1040" y="843" />
            </Array>
            <mxPoint x="1005" y="843" as="targetPoint" />
          </mxGeometry>
        </mxCell>
        <mxCell id="717" style="edgeStyle=orthogonalEdgeStyle;rounded=0;html=1;labelBackgroundColor=none;startFill=1;startSize=4;endArrow=blockThin;endFill=1;endSize=4;jettySize=auto;orthogonalLoop=1;strokeColor=#4284F3;strokeWidth=2;fontSize=12;fontColor=#000000;align=center;dashed=0;" parent="1" source="703" target="701" edge="1">
          <mxGeometry relative="1" as="geometry">
            <Array as="points">
              <mxPoint x="1040" y="963" />
              <mxPoint x="1040" y="1063" />
            </Array>
          </mxGeometry>
        </mxCell>
        <mxCell id="703" value="" style="strokeColor=#dddddd;fillColor=#ffffff;shadow=1;strokeWidth=1;rounded=1;absoluteArcSize=1;arcSize=2;fontSize=10;fontColor=#9E9E9E;align=center;html=1;" parent="1" vertex="1">
          <mxGeometry x="855" y="933" width="150" height="60" as="geometry" />
        </mxCell>
        <mxCell id="704" value="&lt;font color=&quot;#000000&quot;&gt;Id matching&lt;/font&gt;&lt;br&gt;Cloud Dataflow" style="dashed=0;connectable=0;html=1;fillColor=#5184F3;strokeColor=none;shape=mxgraph.gcp2.hexIcon;prIcon=cloud_dataflow;part=1;labelPosition=right;verticalLabelPosition=middle;align=left;verticalAlign=middle;spacingLeft=5;fontColor=#999999;fontSize=12;" parent="703" vertex="1">
          <mxGeometry y="0.5" width="44" height="39" relative="1" as="geometry">
            <mxPoint x="5" y="-19.5" as="offset" />
          </mxGeometry>
        </mxCell>
        <mxCell id="wyFLx1ODkE6jC5D1gI6m-723" value="&lt;b&gt;Karuvigal&lt;/b&gt;" style="fillColor=#E1D5E7;strokeColor=none;shadow=0;gradientColor=none;fontSize=14;align=left;spacing=10;fontColor=#717171;9E9E9E;verticalAlign=top;spacingTop=-4;fontStyle=0;spacingLeft=40;html=1;" vertex="1" parent="1">
          <mxGeometry x="360" y="15" width="424.37" height="585" as="geometry" />
        </mxCell>
        <mxCell id="wyFLx1ODkE6jC5D1gI6m-724" value="" style="shape=mxgraph.gcp2.google_cloud_platform;fillColor=#F6F6F6;strokeColor=none;shadow=0;gradientColor=none;" vertex="1" parent="wyFLx1ODkE6jC5D1gI6m-723">
          <mxGeometry width="23" height="20" relative="1" as="geometry">
            <mxPoint x="20" y="10" as="offset" />
          </mxGeometry>
        </mxCell>
        <mxCell id="wyFLx1ODkE6jC5D1gI6m-721" value="WYSIWIG/Tech &lt;br&gt;UI Builder" style="strokeColor=#dddddd;fillColor=#ffffff;shadow=1;strokeWidth=1;rounded=1;absoluteArcSize=1;arcSize=2;fontSize=10;fontColor=#9E9E9E;align=center;html=1;" vertex="1" parent="wyFLx1ODkE6jC5D1gI6m-723">
          <mxGeometry x="8.48" y="75" width="111.52" height="62.89" as="geometry" />
        </mxCell>
        <mxCell id="wyFLx1ODkE6jC5D1gI6m-719" value="UI Templates" style="strokeColor=#dddddd;fillColor=#ffffff;shadow=1;strokeWidth=1;rounded=1;absoluteArcSize=1;arcSize=2;fontSize=10;fontColor=#9E9E9E;align=center;html=1;" vertex="1" parent="wyFLx1ODkE6jC5D1gI6m-723">
          <mxGeometry x="8.48" y="445" width="111.52" height="80.5" as="geometry" />
        </mxCell>
        <mxCell id="wyFLx1ODkE6jC5D1gI6m-726" value="&lt;font style=&quot;font-size: 14px&quot;&gt;Data Integrator&lt;/font&gt;" style="strokeColor=#dddddd;fillColor=#ffffff;shadow=1;strokeWidth=1;rounded=1;absoluteArcSize=1;arcSize=2;fontSize=10;fontColor=#9E9E9E;align=center;html=1;rotation=-90;" vertex="1" parent="wyFLx1ODkE6jC5D1gI6m-723">
          <mxGeometry x="-98.14" y="257.13" width="522.51" height="50.08" as="geometry" />
        </mxCell>
        <mxCell id="wyFLx1ODkE6jC5D1gI6m-727" value="&lt;b&gt;LUMP(i2m)&lt;/b&gt;" style="fillColor=#F6F6F6;strokeColor=none;shadow=0;gradientColor=none;fontSize=14;align=left;spacing=10;fontColor=#717171;9E9E9E;verticalAlign=top;spacingTop=-4;fontStyle=0;spacingLeft=40;html=1;" vertex="1" parent="1">
          <mxGeometry x="620" y="50" width="290" height="180" as="geometry" />
        </mxCell>
        <mxCell id="wyFLx1ODkE6jC5D1gI6m-728" value="" style="shape=mxgraph.gcp2.google_cloud_platform;fillColor=#F6F6F6;strokeColor=none;shadow=0;gradientColor=none;" vertex="1" parent="wyFLx1ODkE6jC5D1gI6m-727">
          <mxGeometry width="23" height="20" relative="1" as="geometry">
            <mxPoint x="20" y="10" as="offset" />
          </mxGeometry>
        </mxCell>
        <mxCell id="wyFLx1ODkE6jC5D1gI6m-774" value="&lt;div&gt;&lt;b&gt;Funnel&lt;/b&gt;&lt;font style=&quot;font-size: 10px&quot;&gt;(Mautic)&lt;/font&gt;&lt;/div&gt;" style="fillColor=#FFFAE3;strokeColor=none;shadow=0;gradientColor=none;fontSize=14;align=right;spacing=10;fontColor=#717171;9E9E9E;verticalAlign=top;spacingTop=-4;fontStyle=0;spacingLeft=40;html=1;" vertex="1" parent="wyFLx1ODkE6jC5D1gI6m-727">
          <mxGeometry x="153.87911764705882" y="23.684210526315788" width="127.5914705882353" height="99.47368421052632" as="geometry" />
        </mxCell>
        <mxCell id="wyFLx1ODkE6jC5D1gI6m-775" value="Campaigns" style="strokeColor=#dddddd;fillColor=#ffffff;shadow=1;strokeWidth=1;rounded=1;absoluteArcSize=1;arcSize=2;fontSize=10;fontColor=#9E9E9E;align=center;html=1;" vertex="1" parent="wyFLx1ODkE6jC5D1gI6m-774">
          <mxGeometry x="13.07812573529413" y="24.868421052631568" width="101.44585174019609" height="19.778684210526308" as="geometry" />
        </mxCell>
        <mxCell id="wyFLx1ODkE6jC5D1gI6m-776" value="Analytics" style="strokeColor=#dddddd;fillColor=#ffffff;shadow=1;strokeWidth=1;rounded=1;absoluteArcSize=1;arcSize=2;fontSize=10;fontColor=#9E9E9E;align=center;html=1;" vertex="1" parent="wyFLx1ODkE6jC5D1gI6m-774">
          <mxGeometry x="13.07812573529413" y="51.51552631578949" width="101.44585174019609" height="19.778684210526308" as="geometry" />
        </mxCell>
        <mxCell id="wyFLx1ODkE6jC5D1gI6m-777" value="Marketing List" style="strokeColor=#dddddd;fillColor=#ffffff;shadow=1;strokeWidth=1;rounded=1;absoluteArcSize=1;arcSize=2;fontSize=10;fontColor=#9E9E9E;align=center;html=1;" vertex="1" parent="wyFLx1ODkE6jC5D1gI6m-774">
          <mxGeometry x="13.078125735294119" y="75.71936842105264" width="103.88072230392157" height="17.12936842105263" as="geometry" />
        </mxCell>
        <mxCell id="wyFLx1ODkE6jC5D1gI6m-768" value="&lt;b&gt;CMS&lt;/b&gt;&lt;font style=&quot;font-size: 10px&quot;&gt;(Strapi)&lt;/font&gt;" style="fillColor=#B5B0FF;strokeColor=none;shadow=0;gradientColor=none;fontSize=14;align=left;spacing=10;fontColor=#717171;9E9E9E;verticalAlign=top;spacingTop=-4;fontStyle=0;spacingLeft=40;html=1;" vertex="1" parent="wyFLx1ODkE6jC5D1gI6m-727">
          <mxGeometry x="8.529411764705882" y="28.421052631578945" width="135.14852941176468" height="94.73684210526315" as="geometry" />
        </mxCell>
        <mxCell id="wyFLx1ODkE6jC5D1gI6m-770" value="Blogs" style="strokeColor=#dddddd;fillColor=#ffffff;shadow=1;strokeWidth=1;rounded=1;absoluteArcSize=1;arcSize=2;fontSize=10;fontColor=#9E9E9E;align=center;html=1;" vertex="1" parent="wyFLx1ODkE6jC5D1gI6m-768">
          <mxGeometry x="13.852724264705897" y="23.684210526315784" width="107.45434325980392" height="18.836842105263152" as="geometry" />
        </mxCell>
        <mxCell id="wyFLx1ODkE6jC5D1gI6m-771" value="Newsletter" style="strokeColor=#dddddd;fillColor=#ffffff;shadow=1;strokeWidth=1;rounded=1;absoluteArcSize=1;arcSize=2;fontSize=10;fontColor=#9E9E9E;align=center;html=1;" vertex="1" parent="wyFLx1ODkE6jC5D1gI6m-768">
          <mxGeometry x="13.852724264705897" y="49.0624060150376" width="107.45434325980392" height="18.836842105263152" as="geometry" />
        </mxCell>
        <mxCell id="wyFLx1ODkE6jC5D1gI6m-772" value="Social Posts" style="strokeColor=#dddddd;fillColor=#ffffff;shadow=1;strokeWidth=1;rounded=1;absoluteArcSize=1;arcSize=2;fontSize=10;fontColor=#9E9E9E;align=center;html=1;" vertex="1" parent="wyFLx1ODkE6jC5D1gI6m-768">
          <mxGeometry x="13.852724264705897" y="67.89924812030074" width="107.45434325980392" height="16.145864661654134" as="geometry" />
        </mxCell>
        <mxCell id="wyFLx1ODkE6jC5D1gI6m-816" value="" style="strokeColor=#dddddd;shadow=1;strokeWidth=1;rounded=1;absoluteArcSize=1;arcSize=2;fontSize=14;fillColor=#E6E6E6;" vertex="1" parent="wyFLx1ODkE6jC5D1gI6m-727">
          <mxGeometry x="8.529411764705882" y="132.6315789473684" width="272.94117647058823" height="37.89473684210526" as="geometry" />
        </mxCell>
        <mxCell id="wyFLx1ODkE6jC5D1gI6m-817" value="Cloud&#xa;Endpoints" style="sketch=0;dashed=0;connectable=0;html=1;fillColor=#5184F3;strokeColor=none;shape=mxgraph.gcp2.hexIcon;prIcon=cloud_endpoints;part=1;labelPosition=right;verticalLabelPosition=middle;align=left;verticalAlign=middle;spacingLeft=5;fontColor=#999999;fontSize=12;" vertex="1" parent="wyFLx1ODkE6jC5D1gI6m-816">
          <mxGeometry y="0.5" width="44" height="39" relative="1" as="geometry">
            <mxPoint x="5" y="-19.5" as="offset" />
          </mxGeometry>
        </mxCell>
        <mxCell id="wyFLx1ODkE6jC5D1gI6m-793" value="&lt;b&gt;Market To Order&lt;/b&gt;" style="fillColor=#F6F6F6;strokeColor=none;shadow=0;gradientColor=none;fontSize=14;align=left;spacing=10;fontColor=#717171;9E9E9E;verticalAlign=top;spacingTop=-4;fontStyle=0;spacingLeft=40;html=1;" vertex="1" parent="1">
          <mxGeometry x="620" y="240" width="300" height="320" as="geometry" />
        </mxCell>
        <mxCell id="wyFLx1ODkE6jC5D1gI6m-794" value="" style="shape=mxgraph.gcp2.google_cloud_platform;fillColor=#F6F6F6;strokeColor=none;shadow=0;gradientColor=none;" vertex="1" parent="wyFLx1ODkE6jC5D1gI6m-793">
          <mxGeometry width="23" height="20" relative="1" as="geometry">
            <mxPoint x="20" y="10" as="offset" />
          </mxGeometry>
        </mxCell>
        <mxCell id="wyFLx1ODkE6jC5D1gI6m-797" value="&lt;b&gt;LENSCribe&lt;/b&gt;" style="fillColor=#E6D0DE;strokeColor=none;shadow=0;gradientColor=none;fontSize=14;align=left;spacing=10;fontColor=#717171;9E9E9E;verticalAlign=top;spacingTop=-4;fontStyle=0;spacingLeft=40;html=1;" vertex="1" parent="wyFLx1ODkE6jC5D1gI6m-793">
          <mxGeometry x="5.454545454545453" y="234.61743589743588" width="285.45454545454544" height="77.1774358974359" as="geometry" />
        </mxCell>
        <mxCell id="wyFLx1ODkE6jC5D1gI6m-798" value="" style="shape=mxgraph.gcp2.google_cloud_platform;fillColor=#F6F6F6;strokeColor=none;shadow=0;gradientColor=none;" vertex="1" parent="wyFLx1ODkE6jC5D1gI6m-797">
          <mxGeometry width="23" height="20" relative="1" as="geometry">
            <mxPoint x="20" y="10" as="offset" />
          </mxGeometry>
        </mxCell>
        <mxCell id="wyFLx1ODkE6jC5D1gI6m-799" value="Billing" style="strokeColor=#dddddd;fillColor=#ffffff;shadow=1;strokeWidth=1;rounded=1;absoluteArcSize=1;arcSize=2;fontSize=10;fontColor=#9E9E9E;align=center;html=1;" vertex="1" parent="wyFLx1ODkE6jC5D1gI6m-797">
          <mxGeometry x="15.425117845117844" y="28.95160508361204" width="100.87117845117847" height="16.012640178372354" as="geometry" />
        </mxCell>
        <mxCell id="wyFLx1ODkE6jC5D1gI6m-800" value="Charging/Rating" style="strokeColor=#dddddd;fillColor=#ffffff;shadow=1;strokeWidth=1;rounded=1;absoluteArcSize=1;arcSize=2;fontSize=10;fontColor=#9E9E9E;align=center;html=1;" vertex="1" parent="wyFLx1ODkE6jC5D1gI6m-797">
          <mxGeometry x="158.58585858585855" y="28.95160508361204" width="113.27259259259257" height="16.012640178372354" as="geometry" />
        </mxCell>
        <mxCell id="wyFLx1ODkE6jC5D1gI6m-801" value="Event Manager" style="strokeColor=#dddddd;fillColor=#ffffff;shadow=1;strokeWidth=1;rounded=1;absoluteArcSize=1;arcSize=2;fontSize=10;fontColor=#9E9E9E;align=center;html=1;" vertex="1" parent="wyFLx1ODkE6jC5D1gI6m-797">
          <mxGeometry x="15.425117845117844" y="52.346434782608696" width="259.457037037037" height="16.012640178372354" as="geometry" />
        </mxCell>
        <mxCell id="wyFLx1ODkE6jC5D1gI6m-802" value="&lt;b&gt;LENSComm&lt;/b&gt;" style="fillColor=#A9C4EB;strokeColor=none;shadow=0;gradientColor=none;fontSize=14;align=left;spacing=10;fontColor=#717171;9E9E9E;verticalAlign=top;spacingTop=-4;fontStyle=0;spacingLeft=40;html=1;" vertex="1" parent="wyFLx1ODkE6jC5D1gI6m-793">
          <mxGeometry x="5.46" y="49.75" width="284.54" height="130.25" as="geometry" />
        </mxCell>
        <mxCell id="wyFLx1ODkE6jC5D1gI6m-803" value="" style="shape=mxgraph.gcp2.google_cloud_platform;fillColor=#F6F6F6;strokeColor=none;shadow=0;gradientColor=none;" vertex="1" parent="wyFLx1ODkE6jC5D1gI6m-802">
          <mxGeometry width="23" height="20" relative="1" as="geometry">
            <mxPoint x="20" y="10" as="offset" />
          </mxGeometry>
        </mxCell>
        <mxCell id="wyFLx1ODkE6jC5D1gI6m-808" value="&lt;div&gt;&lt;b&gt;&lt;font style=&quot;font-size: 12px&quot;&gt;Commerce Engine&lt;/font&gt;&lt;/b&gt;&lt;/div&gt;" style="fillColor=#B5B0FF;strokeColor=none;shadow=0;gradientColor=none;fontSize=14;align=right;spacing=10;fontColor=#717171;9E9E9E;verticalAlign=top;spacingTop=-4;fontStyle=0;spacingLeft=40;html=1;" vertex="1" parent="wyFLx1ODkE6jC5D1gI6m-802">
          <mxGeometry x="150" y="24.57" width="130" height="95.43" as="geometry" />
        </mxCell>
        <mxCell id="wyFLx1ODkE6jC5D1gI6m-809" value="Customer" style="strokeColor=#dddddd;fillColor=#ffffff;shadow=1;strokeWidth=1;rounded=1;absoluteArcSize=1;arcSize=2;fontSize=10;fontColor=#9E9E9E;align=center;html=1;" vertex="1" parent="wyFLx1ODkE6jC5D1gI6m-808">
          <mxGeometry x="13.325000000000006" y="23.857215982142865" width="105.84166666666667" height="8.520819732142858" as="geometry" />
        </mxCell>
        <mxCell id="wyFLx1ODkE6jC5D1gI6m-810" value="Products" style="strokeColor=#dddddd;fillColor=#ffffff;shadow=1;strokeWidth=1;rounded=1;absoluteArcSize=1;arcSize=2;fontSize=10;fontColor=#9E9E9E;align=center;html=1;" vertex="1" parent="wyFLx1ODkE6jC5D1gI6m-808">
          <mxGeometry x="13.325000000000006" y="37.48836901785714" width="105.84166666666667" height="9.940056964285715" as="geometry" />
        </mxCell>
        <mxCell id="wyFLx1ODkE6jC5D1gI6m-811" value="Orders" style="strokeColor=#dddddd;fillColor=#ffffff;shadow=1;strokeWidth=1;rounded=1;absoluteArcSize=1;arcSize=2;fontSize=10;fontColor=#9E9E9E;align=center;html=1;" vertex="1" parent="wyFLx1ODkE6jC5D1gI6m-808">
          <mxGeometry x="13.325000000000006" y="53.677386874999996" width="105.84166666666667" height="11.07868455357143" as="geometry" />
        </mxCell>
        <mxCell id="wyFLx1ODkE6jC5D1gI6m-812" value="Marketing" style="strokeColor=#dddddd;fillColor=#ffffff;shadow=1;strokeWidth=1;rounded=1;absoluteArcSize=1;arcSize=2;fontSize=10;fontColor=#9E9E9E;align=center;html=1;" vertex="1" parent="wyFLx1ODkE6jC5D1gI6m-808">
          <mxGeometry x="13.324999999999951" y="69.86640473214284" width="105.84166666666667" height="11.07868455357143" as="geometry" />
        </mxCell>
        <mxCell id="wyFLx1ODkE6jC5D1gI6m-804" value="&lt;div style=&quot;text-align: justify&quot;&gt;&lt;b&gt;StoreFront&lt;/b&gt;&lt;/div&gt;" style="fillColor=#FFFAE3;strokeColor=none;shadow=0;gradientColor=none;fontSize=14;align=right;spacing=10;fontColor=#717171;9E9E9E;verticalAlign=top;spacingTop=-4;fontStyle=0;spacingLeft=40;html=1;" vertex="1" parent="wyFLx1ODkE6jC5D1gI6m-802">
          <mxGeometry x="12.38" y="28.41" width="127.62" height="88.54" as="geometry" />
        </mxCell>
        <mxCell id="wyFLx1ODkE6jC5D1gI6m-805" value="MyAccount" style="strokeColor=#dddddd;fillColor=#ffffff;shadow=1;strokeWidth=1;rounded=1;absoluteArcSize=1;arcSize=2;fontSize=10;fontColor=#9E9E9E;align=center;html=1;" vertex="1" parent="wyFLx1ODkE6jC5D1gI6m-804">
          <mxGeometry x="13.081050000000014" y="22.13499999999999" width="101.46853499999999" height="17.604703333333333" as="geometry" />
        </mxCell>
        <mxCell id="wyFLx1ODkE6jC5D1gI6m-806" value="Shop" style="strokeColor=#dddddd;fillColor=#ffffff;shadow=1;strokeWidth=1;rounded=1;absoluteArcSize=1;arcSize=2;fontSize=10;fontColor=#9E9E9E;align=center;html=1;" vertex="1" parent="wyFLx1ODkE6jC5D1gI6m-804">
          <mxGeometry x="13.081050000000014" y="45.85317952380954" width="101.46853499999999" height="17.604703333333333" as="geometry" />
        </mxCell>
        <mxCell id="wyFLx1ODkE6jC5D1gI6m-807" value="Tracking" style="strokeColor=#dddddd;fillColor=#ffffff;shadow=1;strokeWidth=1;rounded=1;absoluteArcSize=1;arcSize=2;fontSize=10;fontColor=#9E9E9E;align=center;html=1;" vertex="1" parent="wyFLx1ODkE6jC5D1gI6m-804">
          <mxGeometry x="13.081050000000014" y="70.93529666666664" width="101.46853499999999" height="17.604703333333333" as="geometry" />
        </mxCell>
        <mxCell id="wyFLx1ODkE6jC5D1gI6m-820" value="" style="strokeColor=#dddddd;shadow=1;strokeWidth=1;rounded=1;absoluteArcSize=1;arcSize=2;fontSize=14;fillColor=#E6E6E6;" vertex="1" parent="wyFLx1ODkE6jC5D1gI6m-793">
          <mxGeometry x="6" y="184" width="280" height="40" as="geometry" />
        </mxCell>
        <mxCell id="wyFLx1ODkE6jC5D1gI6m-821" value="Cloud&#xa;Endpoints" style="sketch=0;dashed=0;connectable=0;html=1;fillColor=#5184F3;strokeColor=none;shape=mxgraph.gcp2.hexIcon;prIcon=cloud_endpoints;part=1;labelPosition=right;verticalLabelPosition=middle;align=left;verticalAlign=middle;spacingLeft=5;fontColor=#999999;fontSize=12;" vertex="1" parent="wyFLx1ODkE6jC5D1gI6m-820">
          <mxGeometry y="0.5" width="44" height="39" relative="1" as="geometry">
            <mxPoint x="5" y="-19.5" as="offset" />
          </mxGeometry>
        </mxCell>
        <mxCell id="wyFLx1ODkE6jC5D1gI6m-819" value="" style="edgeStyle=orthogonalEdgeStyle;rounded=0;orthogonalLoop=1;jettySize=auto;html=1;fontSize=14;" edge="1" parent="1" source="wyFLx1ODkE6jC5D1gI6m-816" target="wyFLx1ODkE6jC5D1gI6m-726">
          <mxGeometry relative="1" as="geometry" />
        </mxCell>
        <mxCell id="wyFLx1ODkE6jC5D1gI6m-822" style="edgeStyle=orthogonalEdgeStyle;rounded=0;orthogonalLoop=1;jettySize=auto;html=1;entryX=0.35;entryY=0.949;entryDx=0;entryDy=0;entryPerimeter=0;fontSize=14;" edge="1" parent="1" source="wyFLx1ODkE6jC5D1gI6m-820" target="wyFLx1ODkE6jC5D1gI6m-726">
          <mxGeometry relative="1" as="geometry" />
        </mxCell>
        <mxCell id="wyFLx1ODkE6jC5D1gI6m-823" value="&lt;b&gt;LENS Core&lt;/b&gt;" style="fillColor=#F6F6F6;strokeColor=none;shadow=0;gradientColor=none;fontSize=14;align=left;spacing=10;fontColor=#717171;9E9E9E;verticalAlign=top;spacingTop=-4;fontStyle=0;spacingLeft=40;html=1;" vertex="1" parent="1">
          <mxGeometry x="970" y="60" width="180" height="490" as="geometry" />
        </mxCell>
        <mxCell id="wyFLx1ODkE6jC5D1gI6m-824" value="" style="shape=mxgraph.gcp2.google_cloud_platform;fillColor=#F6F6F6;strokeColor=none;shadow=0;gradientColor=none;" vertex="1" parent="wyFLx1ODkE6jC5D1gI6m-823">
          <mxGeometry width="23" height="20" relative="1" as="geometry">
            <mxPoint x="20" y="10" as="offset" />
          </mxGeometry>
        </mxCell>
        <mxCell id="wyFLx1ODkE6jC5D1gI6m-832" value="O2C" style="strokeColor=#dddddd;fillColor=#ffffff;shadow=1;strokeWidth=1;rounded=1;absoluteArcSize=1;arcSize=2;fontSize=10;fontColor=#9E9E9E;align=center;html=1;" vertex="1" parent="wyFLx1ODkE6jC5D1gI6m-823">
          <mxGeometry x="12.86" y="58.33" width="157.14" height="71.67" as="geometry" />
        </mxCell>
        <mxCell id="wyFLx1ODkE6jC5D1gI6m-833" value="P2P" style="strokeColor=#dddddd;fillColor=#ffffff;shadow=1;strokeWidth=1;rounded=1;absoluteArcSize=1;arcSize=2;fontSize=10;fontColor=#9E9E9E;align=center;html=1;" vertex="1" parent="wyFLx1ODkE6jC5D1gI6m-823">
          <mxGeometry x="12.86" y="150" width="157.14" height="70" as="geometry" />
        </mxCell>
        <mxCell id="wyFLx1ODkE6jC5D1gI6m-834" value="H2R" style="strokeColor=#dddddd;fillColor=#ffffff;shadow=1;strokeWidth=1;rounded=1;absoluteArcSize=1;arcSize=2;fontSize=10;fontColor=#9E9E9E;align=center;html=1;" vertex="1" parent="wyFLx1ODkE6jC5D1gI6m-823">
          <mxGeometry x="12.86" y="240" width="157.14" height="70" as="geometry" />
        </mxCell>
        <mxCell id="wyFLx1ODkE6jC5D1gI6m-835" value="r2R" style="strokeColor=#dddddd;fillColor=#ffffff;shadow=1;strokeWidth=1;rounded=1;absoluteArcSize=1;arcSize=2;fontSize=10;fontColor=#9E9E9E;align=center;html=1;" vertex="1" parent="wyFLx1ODkE6jC5D1gI6m-823">
          <mxGeometry x="12.86" y="330" width="157.14" height="76" as="geometry" />
        </mxCell>
      </root>
    </mxGraphModel>
  </diagram>
</mxfile>
